<svg width="24" height="24" viewBox="0 0 24 24" fill="none" xmlns="http://www.w3.org/2000/svg">
<circle cx="12.5" cy="9.5" r="7.35" stroke="#1D1D1D" stroke-width="0.3"/>
<path fill-rule="evenodd" clip-rule="evenodd" d="M14.2786 7.26249H12.7132L12.9514 7.5007C12.9514 7.5007 12.7686 7.66361 12.6791 7.77295C12.6099 7.85755 12.5259 8.03777 12.5 8.09524C12.474 8.03771 12.3901 7.85758 12.3209 7.77301C12.2314 7.66367 12.0486 7.50076 12.0486 7.50076L12.2868 7.26255H10.7214C10.7214 7.26255 10.7725 7.69776 11.0278 7.92614C11.1979 8.0784 11.5722 8.11331 11.5722 8.11331L11.7934 8.33451C11.8048 8.52735 11.6403 8.93004 11.1469 8.93004C10.7215 8.93004 10.5343 8.47063 10.5683 8.24943V6.17358C10.5683 6.17358 10.1956 6.19011 9.99038 6.29268C9.776 6.39985 9.54747 6.70105 9.54747 6.70105L9.34329 5.93536C9.34329 5.93536 8.98597 6.02044 8.64566 6.49687C8.30536 6.97329 8.5776 7.53479 8.5776 7.53479L8.2373 7.33061C8.2373 7.33061 7.92575 7.75988 8.01661 8.11331C8.15222 8.64078 8.64566 8.93004 8.64566 8.93004H8.15222C8.15222 8.93004 8.26333 9.53053 8.52707 9.7808C8.79582 10.0358 9.3603 10.053 9.3603 10.053L9.07104 10.3253C9.07104 10.3253 9.56741 10.7203 9.93934 10.7166C10.2698 10.7134 10.7214 10.3934 10.7214 10.3934L10.9767 10.6145C10.9767 10.6145 10.7645 10.8165 10.7214 11.0059C10.6784 11.1953 10.7561 11.5844 10.7561 11.5844L10.6199 11.7205C10.6199 11.7205 10.4328 11.5164 10.1605 11.5164C9.88829 11.5164 9.65008 11.7376 9.65008 11.7376L9.93934 12.0098C9.93934 12.0098 9.74689 12.1511 9.70112 12.248C9.65263 12.3507 9.70112 12.5203 9.70112 12.5203C9.70112 12.5203 9.93064 12.4711 10.0584 12.4692C10.1929 12.4672 10.2486 12.4914 10.3554 12.5378C10.3605 12.54 10.3657 12.5423 10.3711 12.5446C10.5179 12.6082 10.688 12.7925 10.688 12.7925L11.811 11.6525L12.0322 11.8737L11.1985 13.0477L12.492 13.7704V13.7793L12.4999 13.7749L12.508 13.7794V13.7703L13.8015 13.0477L12.9678 11.8736L13.189 11.6524L14.312 12.7924C14.312 12.7924 14.4662 12.6082 14.6131 12.5446C14.7303 12.4937 14.8006 12.4671 14.9416 12.4691C15.0694 12.471 15.2989 12.5202 15.2989 12.5202C15.2989 12.5202 15.3474 12.3506 15.2989 12.2479C15.2531 12.1511 15.0607 12.0097 15.0607 12.0097L15.3499 11.7375C15.3499 11.7375 15.1117 11.5163 14.8395 11.5163C14.5672 11.5163 14.3801 11.7205 14.3801 11.7205L14.2439 11.5844C14.2439 11.5844 14.3216 11.1952 14.2786 11.0058C14.2355 10.8165 14.0233 10.6145 14.0233 10.6145L14.2786 10.3933C14.2786 10.3933 14.7302 10.7134 15.0607 10.7166C15.4326 10.7202 15.929 10.3252 15.929 10.3252L15.6397 10.053C15.6397 10.053 16.2042 10.0358 16.4729 9.78074C16.7367 9.53047 16.8478 8.92998 16.8478 8.92998H16.3543C16.3543 8.92998 16.8478 8.64072 16.9834 8.11325C17.0743 7.75982 16.7627 7.33055 16.7627 7.33055L16.4224 7.53473C16.4224 7.53473 16.6946 6.97323 16.3543 6.49681C16.014 6.02038 15.6567 5.9353 15.6567 5.9353L15.4525 6.70099C15.4525 6.70099 15.224 6.39979 15.0096 6.29262C14.8044 6.19005 14.4317 6.17352 14.4317 6.17352V8.24937C14.4657 8.47057 14.2785 8.92998 13.8531 8.92998C13.3597 8.92998 13.1953 8.52729 13.2066 8.33445L13.4278 8.11325C13.4278 8.11325 13.8021 8.07834 13.9723 7.92608C14.2275 7.6977 14.2786 7.26249 14.2786 7.26249Z" fill="#1D1D1D"/>
<path d="M13.2576 6.68395H11.7603L11.5731 5.57796C11.5731 5.57796 11.72 5.57615 11.8113 5.59498C11.9081 5.61492 12.0495 5.68005 12.0495 5.68005L12.526 5.22064L12.9854 5.68005C12.9854 5.68005 13.1029 5.6159 13.1896 5.59498C13.28 5.57315 13.4278 5.57796 13.4278 5.57796L13.2576 6.68395Z" fill="#1D1D1D"/>
<path fill-rule="evenodd" clip-rule="evenodd" d="M15.5716 16.3442C14.6342 16.7656 13.5945 17 12.5001 17C11.5624 17 10.6649 16.828 9.83751 16.5137C9.54802 17.5074 9.01152 18.4444 8.22798 19.2279C7.67234 19.7836 7.03951 20.215 6.36401 20.5222V21.0919L6.93374 21.0919C7.24093 20.4164 7.67234 19.7836 8.22798 19.2279C10.7133 16.7427 14.7427 16.7427 17.228 19.2279C17.7836 19.7836 18.215 20.4164 18.5222 21.0919L19.0919 21.0919L19.0919 20.5222C18.4164 20.215 17.7836 19.7836 17.228 19.2279C16.4001 18.4 15.8479 17.4007 15.5716 16.3442Z" fill="#1D1D1D"/>
</svg>
