<svg width="360" height="196" viewBox="0 0 360 196" fill="none" xmlns="http://www.w3.org/2000/svg">
<g clip-path="url(#clip0_3_478)">
<rect x="28" y="19" width="304" height="196" rx="9" fill="#D5E0FF"/>
<path d="M272.69 99.9013L251.501 113.892L266.033 130.508L285.076 115.817L272.195 111.616L272.69 99.9013Z" fill="#8FC89F" stroke="black"/>
<path d="M57.4996 161.963L71.6383 143.494C72.1464 142.83 73.0134 142.552 73.8125 142.797L271.959 203.521L281.614 222.857L103.801 264.191L57.0648 166.116C56.4187 164.76 56.5866 163.156 57.4996 161.963Z" fill="#E0E2D6" stroke="black"/>
<path d="M105.306 257.949L65.3649 172.614C63.5397 168.715 62.5953 164.354 63.5496 160.156C63.7094 159.453 63.8871 158.783 64.0862 158.144C64.8243 155.772 65.8559 153.817 67.358 152.117C68.3763 150.964 69.6109 149.928 71.1169 148.959C73.9374 147.145 77.4581 146.994 80.712 147.807L285.28 198.931C283.706 200.451 282.397 201.861 281.313 203.289C280.072 204.926 279.127 206.588 278.423 208.47C277.837 210.036 277.417 211.754 277.13 213.737C276.9 215.328 276.756 217.09 276.681 219.08L105.306 257.949Z" fill="#EFBA5C"/>
<path d="M105.306 257.949L65.3649 172.614C63.5397 168.715 62.5953 164.354 63.5496 160.156C63.7094 159.453 63.8871 158.783 64.0862 158.144M105.306 257.949L276.681 219.08C276.756 217.09 276.9 215.328 277.13 213.737M105.306 257.949L117.005 235.055M64.0862 158.144L107.186 254.269L277.13 213.737M64.0862 158.144C64.8243 155.772 65.8559 153.817 67.358 152.117M277.13 213.737C277.417 211.754 277.837 210.036 278.423 208.47M278.423 208.47L110.738 247.319L67.358 152.117M278.423 208.47C279.127 206.588 280.072 204.926 281.313 203.289M67.358 152.117C68.3763 150.964 69.6109 149.928 71.1169 148.959M71.1169 148.959V148.959C73.9374 147.145 77.4581 146.994 80.712 147.807L285.28 198.931C283.706 200.451 282.397 201.861 281.313 203.289M71.1169 148.959L114.08 240.778L281.313 203.289" stroke="black"/>
<path d="M288.274 197.811L116.731 235.413L77.6498 149.758C75.7765 145.161 74.6111 143.435 72.2088 142.749L247.635 105.275L288.274 197.811Z" fill="white" stroke="black"/>
<path d="M54.5896 182.628L61.8021 160.515C62.0612 159.72 62.7871 159.17 63.6221 159.136L270.693 150.703L286.214 165.741L132.177 263.712L55.5566 186.69C54.4973 185.625 54.1239 184.056 54.5896 182.628Z" fill="#E0E2D6" stroke="black"/>
<path d="M131.525 257.324L65.5421 190.067C62.5269 186.994 60.1897 183.194 59.6975 178.916C59.615 178.2 59.5605 177.509 59.5362 176.84C59.4461 174.358 59.7708 172.171 60.6239 170.069C61.2022 168.644 62.0234 167.257 63.1227 165.844C65.1817 163.196 68.4531 161.886 71.7926 161.574L281.737 141.954C280.757 143.91 279.989 145.674 279.441 147.38C278.812 149.337 278.472 151.218 278.432 153.227C278.398 154.899 278.572 156.659 278.959 158.624C279.27 160.202 279.719 161.912 280.308 163.814L131.525 257.324Z" fill="#EFBA5C"/>
<path d="M131.525 257.324L65.5421 190.067C62.5269 186.994 60.1897 183.194 59.6975 178.916C59.615 178.2 59.5605 177.509 59.5362 176.84M131.525 257.324L280.308 163.814C279.719 161.912 279.27 160.202 278.959 158.624M131.525 257.324L134.969 231.845M59.5362 176.84L132.079 253.229L278.959 158.624M59.5362 176.84C59.4461 174.358 59.7708 172.171 60.6239 170.069M278.959 158.624C278.572 156.659 278.398 154.899 278.432 153.227M278.432 153.227L133.124 245.494L60.6239 170.069M278.432 153.227C278.472 151.218 278.812 149.337 279.441 147.38M60.6239 170.069C61.2022 168.644 62.0234 167.257 63.1227 165.844M63.1227 165.844V165.844C65.1817 163.196 68.4531 161.886 71.7926 161.574L281.737 141.954C280.757 143.91 279.989 145.674 279.441 147.38M63.1227 165.844L134.108 238.215L279.441 147.38" stroke="black"/>
<path d="M284.19 139.904L134.829 232.274L69.5507 164.43C66.259 160.715 64.5871 159.473 62.093 159.622L215.16 66.0853L284.19 139.904Z" fill="white" stroke="black"/>
<path d="M211.976 81.6732L104.821 141.949L157.574 194.308L260.874 134.199L211.976 81.6732Z" fill="#6EB6C2" stroke="black"/>
<path d="M137.45 130.047L116.391 141.704L169.144 194.063L188.056 181.705L137.45 130.047Z" fill="#E5E4DA" stroke="black"/>
<path d="M110.418 145.932L89.3582 157.589L142.111 209.948L161.024 197.59L110.418 145.932Z" fill="#E5E4DA" stroke="black"/>
<path d="M174.916 9.91908L161.281 31.339L181.329 40.5773L192.718 19.3943L179.244 20.8157L174.916 9.91908Z" fill="#E85A48" stroke="black"/>
<path d="M206.207 32.9575L195.896 49.5149L204.052 54.983L214.52 36.6511L206.207 32.9575Z" fill="#EFBA5C" stroke="black"/>
<path d="M47.9261 196.602L45.486 173.47C45.3983 172.639 45.8366 171.841 46.5851 171.469L232.185 79.2629L252.492 86.6573L151.848 238.962L50.4664 199.915C49.0648 199.375 48.0837 198.095 47.9261 196.602Z" fill="#E0E2D6" stroke="black"/>
<path d="M148.647 233.396L60.961 198.923C56.9539 197.348 53.2694 194.832 51.0744 191.128C50.7068 190.508 50.3752 189.9 50.0798 189.299C48.9847 187.07 48.3888 184.941 48.3096 182.673C48.2559 181.136 48.4397 179.535 48.8664 177.796C49.6657 174.539 52.1178 172.008 55.0391 170.36L238.698 66.7686C238.601 68.9543 238.62 70.878 238.816 72.6598C239.04 74.7023 239.498 76.5584 240.281 78.4089C240.932 79.9488 241.809 81.4848 242.965 83.1212C243.893 84.4345 245 85.8126 246.314 87.3091L148.647 233.396Z" fill="#EFBA5C"/>
<path d="M148.647 233.396L60.961 198.923C56.9539 197.348 53.2694 194.832 51.0744 191.128C50.7068 190.508 50.3752 189.9 50.0798 189.299M148.647 233.396L246.314 87.3091C245 85.8126 243.892 84.4345 242.965 83.1212M148.647 233.396L141.393 208.73M50.0798 189.299L147.481 229.432L242.965 83.1212M50.0798 189.299C48.9847 187.07 48.3888 184.941 48.3096 182.673M242.965 83.1212C241.809 81.4848 240.932 79.9488 240.281 78.4089M240.281 78.4089L145.279 221.944L48.3096 182.673M240.281 78.4089C239.498 76.5584 239.04 74.7023 238.816 72.6598M48.3096 182.673C48.2559 181.136 48.4397 179.535 48.8664 177.796M48.8664 177.796V177.796C49.6657 174.539 52.1178 172.008 55.0391 170.36L238.698 66.7686C238.601 68.9543 238.62 70.878 238.816 72.6598M48.8664 177.796L143.207 214.897L238.816 72.6598" stroke="black"/>
<path d="M240.101 63.8957L141.441 209.179L54.1578 173.882C49.6367 171.834 47.6036 171.383 45.3874 172.537L146.954 24.676L240.101 63.8957Z" fill="white" stroke="black"/>
<path d="M150.409 40.206L109.622 101.275L179.15 127.545L216.486 68.2033L150.409 40.206Z" fill="#A88FC8" stroke="black"/>
<path d="M102.113 114.782L87.6453 134.019L157.173 160.29L169.396 141.29L102.113 114.782Z" fill="#E5E4DA" stroke="black"/>
<path d="M83.9171 140.316L69.449 159.553L138.977 185.824L151.199 166.824L83.9171 140.316Z" fill="#E5E4DA" stroke="black"/>
</g>
<defs>
<clipPath id="clip0_3_478">
<rect width="360" height="196" fill="white"/>
</clipPath>
</defs>
</svg>
