<svg width="39" height="48" viewBox="0 0 39 48" fill="none" xmlns="http://www.w3.org/2000/svg">
<path fill-rule="evenodd" clip-rule="evenodd" d="M11.9401 15.4498C11.9692 15.6025 12.1028 15.713 12.2582 15.713C12.4165 15.713 12.5516 15.5986 12.5777 15.4425L14.687 2.84218C14.8132 2.08871 15.4653 1.53669 16.2292 1.53669C20.6475 1.53669 24.2292 5.11842 24.2292 9.53669V24.8292C24.2292 27.0384 22.4384 28.8292 20.2292 28.8292H14.5324C13.4278 28.8292 12.5324 27.9338 12.5324 26.8292V23.5629C12.5324 22.969 12.7964 22.4058 13.2528 22.0258L17.689 18.3327C17.8026 18.2381 17.8226 18.0713 17.7346 17.9525C17.6429 17.8288 17.4684 17.8029 17.3447 17.8945L13.4162 20.8057C12.7241 21.3186 11.7813 21.3307 11.0763 20.8358L6.87243 17.8846C6.74649 17.7962 6.57273 17.8266 6.48433 17.9525C6.39938 18.0735 6.42374 18.2398 6.53983 18.3314L11.2288 22.0294C11.7097 22.4086 11.9903 22.9873 11.9903 23.5998V26.8292C11.9903 27.9338 11.0949 28.8292 9.99031 28.8292H4C1.79086 28.8292 0 27.0384 0 24.8292V9.53669C0 5.11841 3.58172 1.53669 8 1.53669C8.74556 1.53669 9.38595 2.06643 9.52571 2.79877L11.9401 15.4498Z" fill="#323030"/>
<path fill-rule="evenodd" clip-rule="evenodd" d="M31.882 0.913406C29.8931 0.913406 28.1656 2.28197 27.7106 4.21812L25.7821 12.4247C25.0569 15.5105 26.676 18.4968 29.3314 19.7325C29.8707 19.9835 30.4564 19.5986 30.5466 19.0107L31.0394 15.8003C31.1083 15.3515 31.4943 15.0202 31.9483 15.0202C32.4052 15.0202 32.7928 15.3556 32.8584 15.8078L33.335 19.0935C33.4188 19.6714 33.9829 20.0609 34.5218 19.836C37.3916 18.6388 39.1349 15.4329 38.2457 12.1935L36.0141 4.0641C35.5033 2.20325 33.8117 0.913406 31.882 0.913406ZM32.0629 20.3279H32.0238C32.0303 20.3279 32.0368 20.3279 32.0433 20.3279C32.0498 20.3279 32.0564 20.3279 32.0629 20.3279ZM32.2547 4.65389C32.2402 4.44658 32.0677 4.28585 31.8599 4.28585C31.6481 4.28585 31.4738 4.45264 31.4645 4.66427L31.1934 10.8378C31.1747 11.2637 31.5149 11.6192 31.9412 11.6192C32.3753 11.6192 32.7183 11.2512 32.6879 10.8182L32.2547 4.65389Z" fill="#323030"/>
<path fill-rule="evenodd" clip-rule="evenodd" d="M14.1909 30.2164C6.35348 30.2164 0 36.5699 0 44.4073C0 46.3073 1.54024 47.8476 3.44021 47.8476H6.7576C8.41446 47.8476 9.7576 46.5044 9.7576 44.8476V40.1649C9.7576 40.0152 9.87896 39.8939 10.0287 39.8939C10.1784 39.8939 10.2997 40.0152 10.2997 40.1649V44.8476C10.2997 46.5044 11.6429 47.8476 13.2997 47.8476H16.2292C18.0316 47.8476 19.6948 47.2515 21.0324 46.2458C22.4629 45.1702 21.7776 43.1301 20.1265 42.4396L14.8998 40.2535C14.7894 40.2073 14.7175 40.0993 14.7175 39.9796C14.7175 39.8156 14.8504 39.6827 15.0144 39.6827H21.2292C22.8861 39.6827 24.2292 38.3395 24.2292 36.6827V34.9441C24.2292 32.3331 22.1126 30.2164 19.5016 30.2164H14.1909ZM19.6994 35.3446C19.8491 35.3446 19.9705 35.2232 19.9705 35.0735C19.9705 34.9238 19.8491 34.8025 19.6994 34.8025H10.2997C10.15 34.8025 10.0287 34.9238 10.0287 35.0735C10.0287 35.2232 10.15 35.3446 10.2997 35.3446H19.6994Z" fill="#323030"/>
<path fill-rule="evenodd" clip-rule="evenodd" d="M31.7112 32.4072C31.7112 32.6834 31.935 32.9072 32.2112 32.9072C32.4873 32.9072 32.7112 32.6834 32.7112 32.4072V22.4824C32.7112 21.9234 33.1732 21.4643 33.7222 21.5697C36.4316 22.0901 38.4785 24.4732 38.4785 27.3343V41.9774C38.4785 45.2194 35.8504 47.8476 32.6084 47.8476C29.7862 47.8476 27.4291 45.8559 26.8661 43.2015C26.7473 42.6417 27.2208 42.1677 27.793 42.1796L31.6905 42.2602C32.2508 42.2718 32.7112 41.8208 32.7112 41.2604V39.2897C32.7112 38.8713 32.4507 38.4971 32.0583 38.3519L27.3912 36.6245C26.9988 36.4792 26.7383 36.1051 26.7383 35.6867V27.3343C26.7383 24.8036 28.3398 22.6469 30.5846 21.8224C31.1597 21.6112 31.7112 22.0847 31.7112 22.6974V32.4072Z" fill="#323030"/>
</svg>
