<svg width="248" height="33" viewBox="0 0 248 33" fill="none" xmlns="http://www.w3.org/2000/svg">
<path d="M2.83753 25.8297C2.52584 25.8326 2.27354 25.7749 2.08063 25.6568C1.91169 25.5385 1.69435 25.3727 1.42862 25.1594C0.968636 24.6841 0.640744 24.2315 0.444939 23.8017C0.248913 23.348 0.184975 22.917 0.253125 22.5087C0.323275 22.3163 0.345584 22.1362 0.320053 21.9686C0.318276 21.7768 0.317387 21.6809 0.317387 21.6809C0.196398 21.5621 0.159768 21.4905 0.207497 21.4661C0.255005 21.4177 0.302289 21.3453 0.349352 21.249C0.493206 21.2477 0.539936 21.1154 0.489541 20.8521C0.439812 20.6607 0.531827 20.2402 0.765585 19.5907C0.999344 18.9411 1.29337 18.327 1.64768 17.7482C1.78931 17.5071 2.0022 17.1934 2.28636 16.8072C2.57029 16.3969 2.87831 15.9984 3.21041 15.6117C3.56627 15.2008 3.88694 14.8741 4.17243 14.6317C4.76716 14.1226 5.29118 13.7461 5.74449 13.5022C6.19781 13.2582 6.68765 13.0738 7.214 12.949C7.74035 12.8243 8.09943 12.761 8.29124 12.7592C8.50702 12.7572 8.7965 12.9464 9.15969 13.3266C9.71336 13.5613 10.1116 13.8453 10.3545 14.1788C10.6213 14.512 10.7937 15.0019 10.8716 15.6486C10.9502 16.3672 10.898 17.1949 10.7148 18.1318C10.5554 19.0444 10.0026 20.1885 9.05619 21.564C8.46479 22.4326 7.91935 23.0851 7.41986 23.5213C6.92015 23.9336 6.32453 24.3467 5.63302 24.7607C5.13264 25.1011 4.67943 25.357 4.2734 25.5286C3.86715 25.6763 3.38852 25.7766 2.83753 25.8297ZM6.2547 21.9855C6.82412 21.3329 7.27399 20.7173 7.60432 20.1387C7.95862 19.56 8.28751 18.8256 8.59097 17.9356C8.68443 17.671 8.74137 17.3468 8.76179 16.963C8.78199 16.5551 8.76656 16.1836 8.71549 15.8484C8.68819 15.489 8.60238 15.286 8.45808 15.2394C8.16882 15.0742 7.82073 15.0295 7.41381 15.1052C7.00667 15.1569 6.56523 15.3888 6.08949 15.8008C5.35202 16.4311 4.7119 17.2163 4.16912 18.1564C3.62612 19.0726 3.09634 20.1206 2.57976 21.3003C2.22812 22.1667 2.15065 22.8628 2.34734 23.3885C2.56779 23.89 3.013 24.0657 3.68299 23.9156C4.37673 23.7413 5.23397 23.098 6.2547 21.9855Z" fill="#FEA800"/>
<path d="M14.1741 24.5018C13.9088 24.3364 13.667 24.1228 13.4488 23.8611C13.2304 23.5754 13.1192 23.2167 13.1152 22.7852C13.1129 22.5454 13.1571 22.1374 13.2477 21.5611C13.3382 20.9848 13.4641 20.3362 13.6253 19.6154C13.7864 18.8946 13.9481 18.2217 14.1101 17.5968C14.3459 17.163 14.5457 16.7295 14.7095 16.2964C14.8733 15.8633 14.9548 15.5988 14.9539 15.5029C14.9992 15.2147 15.056 14.8785 15.1244 14.4942C15.2167 14.1097 15.3094 13.7612 15.4024 13.4486C15.4954 13.1361 15.5657 12.9556 15.6132 12.9072C15.732 12.7862 15.8752 12.7129 16.0428 12.6874C16.2102 12.6379 16.3782 12.6603 16.5469 12.7547C16.7394 12.8248 16.8847 12.9793 16.9828 13.2182C17.2492 13.5035 17.3843 13.8499 17.3881 14.2575C17.3916 14.6411 17.2651 15.2177 17.0085 15.9874C16.7972 16.4689 16.5866 17.0343 16.3768 17.6837C16.167 18.333 15.9808 18.9342 15.8181 19.4872C15.6791 20.016 15.5985 20.3764 15.5763 20.5684L14.859 20.7909C15.2631 20.4035 15.643 20.0043 15.9989 19.5934C16.3545 19.1585 16.6151 18.8204 16.7807 18.5791C17.1832 18.0239 17.5266 17.5651 17.811 17.2028C18.1191 16.8163 18.5105 16.3571 18.9852 15.8252C19.4596 15.2693 19.924 14.9293 20.3784 14.8052C20.8566 14.6569 21.2275 14.5816 21.4913 14.5791C22.0196 14.6701 22.4417 14.942 22.7577 15.3946C23.0973 15.8231 23.3191 16.4684 23.423 17.3306C23.4261 17.6663 23.3938 18.0622 23.3261 18.5184C23.2824 18.9744 23.2605 19.2024 23.2605 19.2024C23.2605 19.2024 23.45 18.9489 23.8289 18.4418C24.2318 17.9346 24.7662 17.3781 25.432 16.7725C25.8844 16.4326 26.3261 16.2367 26.7573 16.1848C27.1882 16.1089 27.5731 16.2492 27.9121 16.6057C28.5386 16.9356 28.9509 17.4473 29.1492 18.1408C29.3472 18.8103 29.4032 19.673 29.317 20.7288C29.2509 21.3529 29.2432 21.8205 29.2941 22.1317C29.3447 22.419 29.4193 22.706 29.5178 22.9929C29.7105 23.087 29.7484 23.2904 29.6314 23.6032C29.5142 23.8921 29.3717 24.0372 29.2038 24.0388C28.9641 24.041 28.6879 23.9956 28.3753 23.9026C28.0867 23.8094 27.8216 23.656 27.5798 23.4424C27.3618 23.2046 27.2509 22.882 27.2471 22.4744L27.2265 20.2447C27.2216 19.7172 27.1936 19.2859 27.1426 18.9506C27.1155 18.6152 27.0536 18.412 26.9571 18.3409C26.692 18.1995 26.3098 18.3589 25.8106 18.8191C25.3113 19.2793 24.7775 19.8957 24.2092 20.6682C23.6409 21.4408 23.1088 22.237 22.6129 23.0568C22.1642 23.8043 21.8805 24.2385 21.7617 24.3595C21.6667 24.4563 21.4866 24.422 21.2213 24.2566C20.6923 24.0937 20.3545 23.869 20.208 23.5826C20.0852 23.2721 20.07 22.9245 20.1623 22.54C20.2784 22.1313 20.4172 21.5786 20.5786 20.8817C20.7639 20.1846 20.9375 19.5117 21.0994 18.8628C21.261 18.1899 21.3644 17.7094 21.4097 17.4212C21.312 17.2303 21.1436 17.1719 20.9045 17.2461C20.6892 17.296 20.4624 17.406 20.2242 17.5761C19.9383 17.7705 19.594 18.1334 19.1913 18.6646C18.7886 19.1959 18.3747 19.8112 17.9496 20.5104C17.6661 20.9687 17.3706 21.427 17.0631 21.8854C16.7555 22.3198 16.4713 22.7061 16.2107 23.0442C15.9501 23.3823 15.7246 23.6362 15.5344 23.8058C15.2036 24.3364 14.9785 24.6262 14.8591 24.6752C14.7396 24.7243 14.5113 24.6665 14.1741 24.5018Z" fill="#FEA800"/>
<path d="M60.2389 27.5637C60.2162 27.7078 60.0727 27.7451 59.8083 27.6756C59.5681 27.6298 59.3508 27.464 59.1563 27.1781C58.9603 26.7243 58.8605 26.3056 58.8569 25.922C58.8534 25.5384 58.86 24.9629 58.8769 24.1954C59.013 23.355 59.1947 22.2623 59.422 20.9174C59.6731 19.5484 59.9586 18.0231 60.2788 16.3417C60.6226 14.6361 60.9898 12.8584 61.3803 11.0085C61.6591 10.0468 61.8787 9.16955 62.0392 8.3768C62.2235 7.55985 62.3612 6.89918 62.4525 6.39481C62.5437 5.89043 62.5893 5.63824 62.5893 5.63824C62.5887 5.56631 62.5171 5.60294 62.3746 5.74813C62.2558 5.86912 62.1372 6.01409 62.0189 6.18303C61.9006 6.35197 61.8539 6.48428 61.8787 6.57996C61.8787 6.57996 61.7959 6.70061 61.6303 6.94192C61.4647 7.18324 61.2519 7.50891 60.992 7.91894C60.7544 8.16092 60.4712 8.6431 60.1422 9.36548C59.8132 10.0879 59.4478 10.7626 59.046 11.3898C58.669 12.1126 58.2687 12.8956 57.8449 13.7387C57.4209 14.5579 57.0436 15.2448 56.713 15.7993C56.5001 16.113 56.2877 16.4746 56.0757 16.8842C55.8637 17.2938 55.7343 17.5587 55.6874 17.6791C55.594 17.9437 55.4291 18.2689 55.1929 18.6548C54.9565 19.0166 54.6961 19.3787 54.4117 19.741C54.2699 19.9581 54.1281 20.1872 53.9865 20.4283C53.8446 20.6454 53.7265 20.8383 53.6322 21.007C53.5616 21.1516 53.5263 21.2238 53.5263 21.2238C53.527 21.2958 53.4091 21.5126 53.1727 21.8745C52.9602 22.2361 52.6882 22.6343 52.3565 23.069C52.0488 23.5034 51.7526 23.8778 51.4677 24.1922C50.6368 25.087 49.9704 25.6207 49.4684 25.7932C48.9663 25.9417 48.4009 25.7312 47.7722 25.1615C47.4569 24.7808 47.2252 24.3514 47.0769 23.8732C46.9283 23.371 46.8627 22.7602 46.88 22.0407C46.8971 21.2972 46.9725 20.3734 47.1061 19.2692C47.2662 18.4285 47.4143 17.5879 47.5503 16.7474C47.6862 15.8829 47.8106 15.0785 47.9236 14.3342C48.0603 13.5656 48.1742 12.9172 48.2652 12.3888C48.3802 11.8602 48.4729 11.5117 48.5433 11.3432C48.5868 10.8633 48.5724 10.5996 48.5 10.5524C48.4276 10.5051 48.2851 10.6503 48.0724 10.9879C47.9781 11.1566 47.7302 11.5785 47.3289 12.2536C46.9273 12.9048 46.4552 13.7124 45.9126 14.6765C45.3941 15.6404 44.8763 16.6883 44.3592 17.82C43.3931 19.6513 42.592 21.1693 41.9557 22.3741C41.3432 23.5547 40.8484 24.4944 40.4712 25.1932C40.118 25.8918 39.8591 26.4098 39.6944 26.747C39.5297 27.0842 39.4119 27.3131 39.3411 27.4336C39.2702 27.5542 39.2111 27.6386 39.1636 27.687C38.9478 27.689 38.7191 27.5952 38.4776 27.4057C38.2603 27.2398 38.0306 27.0381 37.7886 26.8006C37.7152 26.6334 37.6776 26.4659 37.6761 26.2981C37.6985 26.1301 37.7802 25.8895 37.9212 25.5765C38.0619 25.2395 38.273 24.734 38.5545 24.06C38.8604 23.4338 39.1431 22.8917 39.4026 22.4337C39.6619 21.9517 39.8631 21.6621 40.006 21.5649C40.1241 21.372 40.2302 21.1792 40.3244 20.9865C40.4185 20.7938 40.4763 20.5655 40.4978 20.3015C40.6164 20.1566 40.7935 19.8672 41.0293 19.4334C41.2888 18.9754 41.548 18.4815 41.8068 17.9516C41.9958 17.6381 42.2317 17.2283 42.5148 16.7221C42.8218 16.2158 43.1404 15.6613 43.4705 15.0588C43.8003 14.4323 44.0946 13.8422 44.3532 13.2883C45.4386 11.384 46.3588 9.78093 47.1141 8.47913C47.8691 7.15336 48.4367 6.30888 48.817 5.94569C48.9357 5.8247 49.0541 5.65576 49.1719 5.43887C49.3138 5.22175 49.384 5.02928 49.3824 4.86145C49.3777 4.35796 49.4694 3.90154 49.6574 3.49217C49.8692 3.05861 50.0832 2.86481 50.2995 2.91076C50.5392 2.90854 50.7552 2.93051 50.9475 2.97669C51.1397 3.02286 51.3449 3.17681 51.5632 3.43855C51.7576 3.72448 51.9281 4.01063 52.0747 4.29701C52.2212 4.58338 52.2145 5.15891 52.0547 6.02359C52.0578 6.35925 52.0254 6.74319 51.9575 7.17542C51.8893 7.58367 51.8209 7.96795 51.7523 8.32825C51.7075 8.66436 51.674 8.92842 51.6518 9.12045C51.3488 10.0584 51.0708 11.116 50.818 12.2932C50.5649 13.4465 50.336 14.6235 50.1314 15.8243C49.9265 17.0011 49.7569 18.1057 49.6226 19.138C49.4881 20.1463 49.3999 20.9863 49.3582 21.6581C49.3402 22.3056 49.3676 22.677 49.4405 22.7723C49.6092 22.8666 49.7531 22.8773 49.8724 22.8042C49.9916 22.7312 50.1925 22.4176 50.4751 21.8635C50.6402 21.5743 50.8648 21.2245 51.1487 20.8143C51.4564 20.3798 51.7524 19.9814 52.0368 19.6191C52.2255 19.2817 52.5205 18.7754 52.9219 18.1003C53.3233 17.4252 53.8307 16.5573 54.4443 15.4966C55.0819 14.4357 55.8372 13.1459 56.7103 11.6272C57.6072 10.0843 58.6217 8.30057 59.7539 6.27595C60.2975 5.43169 60.8055 4.61174 61.2777 3.8161C61.7736 2.99626 62.1763 2.46502 62.4857 2.22237C62.8185 1.90758 63.1655 1.83243 63.5267 1.99693C63.8877 2.13745 64.2022 2.44625 64.4704 2.92332C64.7626 3.40016 64.9239 3.99811 64.9546 4.71716C64.9817 5.0526 64.9387 5.5925 64.8257 6.33685C64.7367 7.08099 64.5888 7.93357 64.3819 8.89459C64.1748 9.83164 63.908 10.8052 63.5817 11.8153C63.5135 12.2236 63.3985 12.7401 63.2364 13.3651C63.0981 13.9658 62.936 14.5907 62.7502 15.2398C62.5644 15.889 62.3783 16.5021 62.1918 17.0793C62.0793 17.8716 61.9426 18.6522 61.7819 19.4209C61.6452 20.1895 61.602 20.7054 61.6524 20.9687C61.4402 21.3543 61.3014 21.9071 61.2362 22.627C61.1709 23.347 61.1418 24.0905 61.1489 24.8578C61.0617 25.7937 60.9959 26.4537 60.9515 26.8377C60.9071 27.2218 60.8248 27.4024 60.7047 27.3795C60.3922 27.2865 60.2369 27.3479 60.2389 27.5637Z" fill="#FEA800"/>
<path d="M68.9785 24.7133C68.7871 24.763 68.5356 24.7893 68.2239 24.7922C67.912 24.7711 67.6359 24.7377 67.3957 24.692C67.1793 24.622 67.0707 24.5511 67.0701 24.4792C67.069 24.3593 67.0085 24.2999 66.8886 24.301C66.8886 24.301 66.8282 24.2536 66.7074 24.1588C66.6106 24.0638 66.4539 23.9694 66.2372 23.8755C66.0183 23.5418 65.9071 23.1832 65.9036 22.7996C65.8998 22.392 66.0018 21.7556 66.2096 20.8905C66.276 20.2904 66.4973 19.593 66.8736 18.7983C67.2736 17.9793 67.7574 17.1476 68.3251 16.3031C68.8927 15.4587 69.4851 14.6979 70.1023 14.0208C70.7434 13.3435 71.3262 12.8465 71.8508 12.5299C72.1834 12.1912 72.5893 12.0076 73.0686 11.9792C73.5479 11.9507 74.0044 12.0544 74.4382 12.2902C74.6791 12.4078 74.9206 12.5974 75.1628 12.8589C75.405 13.1204 75.6354 13.406 75.8541 13.7157C76.0727 14.0254 76.2555 14.3354 76.4022 14.6458C76.4766 14.9088 76.5148 15.1483 76.5168 15.364C76.5425 15.5556 76.5447 15.7954 76.5234 16.0833C76.5261 16.371 76.4941 16.8029 76.4275 17.379C76.3117 17.8117 76.2086 18.3401 76.1185 18.9644C76.0524 19.5884 76.0214 20.1282 76.0256 20.5837C75.9819 21.0397 76.0328 21.363 76.1785 21.5534C76.3481 21.7437 76.5879 21.7534 76.8981 21.5827C77.1845 21.4362 77.4596 21.3737 77.7236 21.3952C77.9873 21.3928 78.1918 21.4628 78.3369 21.6054C78.5061 21.7477 78.592 21.9627 78.5947 22.2504C78.5974 22.5381 78.4563 22.8391 78.1715 23.1535C77.9104 23.4436 77.5771 23.6985 77.1715 23.918C76.7896 24.1134 76.4189 24.2127 76.0593 24.2161C75.7955 24.2185 75.5424 24.065 75.2997 23.7555C75.0569 23.4221 74.8374 23.0285 74.6414 22.5747C74.4691 22.0968 74.309 21.6427 74.1612 21.2125L73.9377 20.3873L72.405 21.8761C72.0964 22.2147 71.7876 22.5292 71.4786 22.8198C71.1933 23.0862 71.0153 23.2797 70.9445 23.4003C70.8266 23.6171 70.6008 23.835 70.2672 24.0539C69.9575 24.2726 69.5279 24.4924 68.9785 24.7133ZM69.0667 22.5904C69.4721 22.3469 69.9364 21.9949 70.4596 21.5345C70.9826 21.0501 71.4933 20.5298 71.9917 19.9737C72.4899 19.3936 72.9046 18.8623 73.2358 18.3797C73.6383 17.8245 73.9452 17.3061 74.1565 16.8246C74.3678 16.3431 74.5195 15.8861 74.6114 15.4536C74.513 15.1908 74.3546 14.9165 74.1362 14.6308C73.9175 14.3211 73.7241 14.1551 73.5561 14.1326C73.0286 14.1375 72.4683 14.4784 71.8751 15.1553C71.3057 15.808 70.7488 16.5205 70.2045 17.2928C70.1097 17.4136 69.9796 17.6066 69.8142 17.8719C69.6489 18.1372 69.4834 18.3905 69.3177 18.6318C69.1759 18.8489 69.0813 18.9936 69.034 19.066C68.963 19.1626 68.8217 19.4396 68.6101 19.8972C68.4223 20.3305 68.2346 20.7758 68.0471 21.2331C67.8593 21.6665 67.766 21.9551 67.7673 22.0989C67.7687 22.2428 67.7821 22.3985 67.8076 22.5661C67.8571 22.7335 67.978 22.8403 68.1703 22.8865C68.3625 22.9326 68.6613 22.834 69.0667 22.5904Z" fill="#FEA800"/>
<path d="M80.568 31.9431C80.282 32.1375 79.9822 32.1283 79.6686 31.9154C79.3789 31.7023 79.1601 31.3806 79.0122 30.9504C78.8644 30.5202 78.8721 30.0645 79.0355 29.5835C79.0821 29.4392 79.1518 29.1988 79.2446 28.8622C79.3376 28.5496 79.395 28.2734 79.4168 28.0334C79.4392 27.8653 79.5085 27.577 79.6246 27.1683C79.7409 26.7835 79.8692 26.3987 80.0095 26.0138C80.1738 25.6286 80.3031 25.3516 80.3974 25.1829C80.5391 24.9418 80.6324 24.6652 80.6775 24.3531C80.7465 24.0408 80.7803 23.8007 80.7787 23.6328C80.8251 23.4646 80.8833 23.2722 80.9532 23.0557C81.0471 22.8391 81.1414 22.6704 81.2362 22.5496C81.2824 22.3573 81.3525 22.1529 81.4463 21.9362C81.54 21.6956 81.646 21.4908 81.7644 21.3218C81.8108 21.1536 81.8448 20.9494 81.8666 20.7095C81.9123 20.4693 81.983 20.3367 82.0787 20.3119C82.1018 20.2157 82.1129 20.1197 82.112 20.0238C82.1351 19.9277 82.1818 19.7954 82.2522 19.6269C82.2977 19.3627 82.402 18.9781 82.5652 18.4731C82.7284 17.968 82.927 17.4147 83.1612 16.8131C83.4185 16.1153 83.5323 15.4549 83.5026 14.8317C83.4966 14.1844 83.3131 13.7905 82.9521 13.6499C82.7594 13.5558 82.6383 13.4251 82.5888 13.2577C82.5391 13.0663 82.5613 12.8743 82.6554 12.6816C82.7495 12.4889 82.8922 12.3557 83.0833 12.282C83.2982 12.1841 83.5256 12.146 83.7656 12.1678C84.0296 12.1893 84.2578 12.2351 84.4502 12.3053C84.6425 12.3515 84.7268 12.3986 84.7033 12.4468C84.7044 12.5667 84.765 12.6381 84.8851 12.6609C84.9324 12.5886 85.0291 12.6716 85.1752 12.91C85.345 13.1242 85.5032 13.3745 85.6497 13.6609C85.7962 13.9473 85.87 14.1504 85.8711 14.2703C85.8241 14.3666 85.8007 14.4268 85.8009 14.4508C85.8009 14.4508 85.8488 14.4503 85.9447 14.4494C85.9447 14.4494 86.0761 14.3883 86.3387 14.266C86.6011 14.1197 86.8754 13.9613 87.1615 13.7908C87.4714 13.5961 87.6739 13.4503 87.7689 13.3535C87.7689 13.3535 87.8286 13.329 87.948 13.28C88.0912 13.2067 88.2103 13.1217 88.3053 13.0249C88.7831 12.8286 89.2982 12.7879 89.8508 12.9027C90.4273 13.0172 90.8848 13.2288 91.2234 13.5373C91.7084 14.1323 91.9535 14.7055 91.9586 15.2569C91.9877 15.8081 91.8383 16.5049 91.5104 17.3471C91.4636 17.4675 91.3576 17.6723 91.1924 17.9615C91.051 18.2266 90.9095 18.4797 90.7679 18.7207C90.626 18.9379 90.5551 19.0464 90.5551 19.0464C90.0116 19.9147 89.371 20.6399 88.6331 21.2222C87.8951 21.8045 87.1446 22.315 86.3813 22.7537C86.1431 22.9237 85.8926 23.0579 85.6298 23.1563C85.3907 23.2304 85.1754 23.2804 84.9838 23.3061C84.792 23.3079 84.6599 23.2852 84.5875 23.2379C84.322 23.0485 84.0785 22.6431 83.8569 22.0218C83.7399 22.3346 83.6229 22.6474 83.5059 22.9602C83.4127 23.2488 83.3545 23.4411 83.3315 23.5372C83.309 23.7053 83.2864 23.8494 83.2635 23.9695C83.2404 24.0656 83.1813 24.1501 83.086 24.2229C83.086 24.2229 83.0745 24.2709 83.0514 24.3671C83.0283 24.4632 82.9457 24.6078 82.8037 24.801C82.5703 25.4985 82.3601 26.0999 82.173 26.6051C81.9861 27.1344 81.8343 27.5794 81.7178 27.9401C81.6015 28.3248 81.5087 28.6614 81.4394 28.9498C81.3975 29.5976 81.2715 30.2341 81.0615 30.8595C80.8517 31.5088 80.6872 31.87 80.568 31.9431ZM84.7527 21.6538C84.8481 21.605 85.0507 21.4712 85.3604 21.2525C85.6938 21.0097 86.0629 20.7305 86.4676 20.4151C86.8721 20.0756 87.2408 19.7605 87.5738 19.4697C87.9308 19.1786 88.1685 18.9606 88.2871 18.8157C88.4769 18.5981 88.6546 18.3687 88.8202 18.1274C88.9856 17.8621 89.1148 17.5731 89.2078 17.2606C89.2779 17.0681 89.3598 16.8515 89.4535 16.6109C89.5472 16.3703 89.629 16.1417 89.6989 15.9253C89.7931 15.7326 89.8273 15.5404 89.8015 15.3488C89.7995 15.1331 89.7259 14.9539 89.5807 14.8114C89.4846 14.7883 89.1975 14.8629 88.7196 15.0352C88.2414 15.1835 87.7163 15.4401 87.1442 15.8051C86.5719 16.1461 86.0725 16.5943 85.6461 17.1497C85.1486 17.8017 84.7832 18.4765 84.5498 19.174C84.3405 19.8713 84.2501 20.4596 84.2785 20.9389C84.3309 21.4179 84.4889 21.6563 84.7527 21.6538Z" fill="#FEA800"/>
<path d="M103.093 25.4762C102.854 25.5983 102.578 25.5289 102.263 25.268C101.949 25.0072 101.731 24.7934 101.61 24.6267C101.392 24.341 101.232 23.9468 101.132 23.4442C101.031 22.9416 100.979 22.5225 100.976 22.1869C100.97 21.5635 100.919 21.2043 100.822 21.1093C100.749 21.014 100.594 21.0994 100.357 21.3654C100.143 21.6071 99.8228 21.9458 99.3953 22.3813C99.2052 22.5749 98.8959 22.8295 98.4672 23.1452C98.0386 23.4609 97.5974 23.7288 97.1439 23.9488C96.6904 24.1688 96.3078 24.2802 95.9961 24.2831C95.7801 24.2611 95.5632 24.1432 95.3454 23.9295C95.1276 23.7157 94.9336 23.4777 94.7633 23.2155C94.6168 22.9291 94.5067 22.6904 94.433 22.4992C94.3098 22.1407 94.2923 21.5534 94.3807 20.7374C94.4928 19.8971 94.676 18.9723 94.9304 17.9628C95.2086 16.9292 95.5232 15.9432 95.8741 15.0048C96.2489 14.0423 96.6252 13.2595 97.0033 12.6565C97.4051 12.0294 97.7978 11.7141 98.1814 11.7105C98.4452 11.7081 98.6504 11.862 98.7972 12.1724C98.9676 12.4585 99.1017 12.697 99.1994 12.888C99.3215 13.1266 99.3589 13.2821 99.3116 13.3545C99.2883 13.4266 99.1936 13.5594 99.0276 13.7528C98.838 13.9943 98.614 14.404 98.3556 14.9818C98.097 15.5357 97.8269 16.1497 97.5455 16.8236C97.2877 17.4734 97.0537 18.099 96.8435 18.7004C96.6333 19.3018 96.4817 19.7588 96.3887 20.0714C96.3425 20.2636 96.273 20.528 96.1802 20.8646C96.1114 21.2009 96.0899 21.4648 96.1156 21.6564C96.1158 21.6804 96.1284 21.7402 96.1532 21.8359C96.1779 21.9076 96.2741 21.9427 96.4419 21.9411C96.9694 21.9362 97.4949 21.7156 98.0183 21.2791C98.5656 20.8185 99.0996 20.2261 99.6204 19.5019C100.165 18.7775 100.674 18.0175 101.146 17.2219C101.618 16.4262 102.055 15.6669 102.455 14.9439C102.88 14.2206 103.247 13.6297 103.554 13.1713C103.861 12.6889 104.111 12.4348 104.302 12.4091C104.47 12.3836 104.662 12.4058 104.878 12.4757C105.119 12.5214 105.323 12.6034 105.492 12.7218C105.661 12.8401 105.734 13.0072 105.712 13.2232C105.433 14.113 105.094 15.0033 104.694 15.8942C104.295 16.7611 103.919 17.6398 103.568 18.5302C103.24 19.4204 103.009 20.3337 102.874 21.2701C102.783 21.8464 102.824 22.4095 102.997 22.9594C103.194 23.509 103.498 23.9978 103.91 24.4256C104.152 24.6631 104.13 24.8911 103.844 25.1095C103.559 25.328 103.308 25.4502 103.093 25.4762Z" fill="#FEA800"/>
<path d="M115.336 25.2548C115.094 25.0173 114.851 24.6958 114.608 24.2905C114.364 23.8611 114.168 23.3714 114.019 22.8213C113.969 22.6299 113.943 22.3664 113.939 22.0308C113.96 21.6949 113.958 21.4551 113.933 21.3115C113.862 21.48 113.744 21.6609 113.578 21.8543C113.436 22.0234 113.293 22.1686 113.151 22.2898C113.056 22.3866 112.842 22.5804 112.509 22.8713C112.175 23.1381 111.842 23.357 111.508 23.5279C110.721 24.0387 110.064 24.3206 109.537 24.3734C109.034 24.426 108.552 24.1667 108.091 23.5956C107.705 23.2874 107.426 22.9423 107.255 22.5603C107.107 22.178 107.102 21.6505 107.24 20.9779C107.28 20.1383 107.392 19.322 107.577 18.529C107.761 17.7121 108.147 16.6295 108.734 15.2813C109.228 14.2936 109.605 13.5708 109.864 13.1128C110.124 12.6309 110.289 12.3416 110.36 12.2451C110.718 12.1218 111.018 12.1311 111.259 12.2727C111.5 12.3903 111.646 12.6168 111.697 12.952C111.843 13.1904 111.823 13.5982 111.637 14.1754C111.474 14.7524 111.181 15.4624 110.757 16.3056C110.429 17.1239 110.125 17.9419 109.845 18.7598C109.589 19.5774 109.439 20.2741 109.397 20.85C109.354 21.4259 109.501 21.7722 109.838 21.8889C110.055 22.0068 110.426 21.9674 110.952 21.7707C111.501 21.5738 112.108 21.0886 112.773 20.3152C113.461 19.5415 114.121 18.3725 114.754 16.8081C114.942 16.3268 115.082 15.9059 115.174 15.5453C115.266 15.1608 115.323 14.7407 115.342 14.2849C115.292 13.9977 115.301 13.7458 115.371 13.5294C115.465 13.2887 115.655 13.0832 115.941 12.9127C116.036 12.7919 116.167 12.6828 116.334 12.5853C116.5 12.4639 116.608 12.4629 116.657 12.5823L117.232 12.541C117.328 12.5162 117.389 12.5756 117.414 12.7192C117.463 12.8386 117.548 12.9457 117.669 13.0405C117.934 13.2539 118.011 13.7207 117.897 14.4411C117.784 15.1615 117.458 16.1716 116.918 17.4714C116.472 18.4586 116.167 19.2047 116.004 19.7098C115.865 20.2146 115.785 20.7069 115.766 21.1866C115.77 21.6182 115.858 22.025 116.029 22.407C116.2 22.7891 116.467 23.1343 116.83 23.4426C117.095 23.608 117.241 23.7985 117.267 24.0141C117.317 24.2294 117.331 24.481 117.31 24.769C117.264 24.9852 117.122 25.1663 116.883 25.3124C116.668 25.4343 116.417 25.4966 116.13 25.4992C115.842 25.5019 115.577 25.4204 115.336 25.2548Z" fill="#FEA800"/>
<path d="M130.159 28.4983C130.159 28.4983 130.075 28.4631 129.907 28.3928C129.762 28.3462 129.594 28.3357 129.403 28.3615C129.018 28.2931 128.729 28.092 128.534 27.7581C128.363 27.448 128.312 27.1008 128.38 26.7165C128.475 26.6197 128.533 26.4153 128.555 26.1034C128.6 25.7913 128.621 25.5393 128.619 25.3475C128.69 25.1551 128.736 25.0108 128.759 24.9146C128.782 24.8185 128.84 24.5782 128.933 24.1937C128.977 23.7857 129.067 23.2214 129.205 22.5007C129.365 21.7559 129.538 20.9631 129.722 20.1222C129.906 19.2573 130.09 18.4403 130.275 17.6713C130.483 16.8781 130.657 16.2171 130.796 15.6883C130.959 15.1593 131.076 14.8585 131.147 14.7859C131.147 14.7859 131.147 14.7499 131.146 14.678C131.145 14.5821 131.132 14.4863 131.108 14.3906C131.108 14.3906 131.119 14.2826 131.141 14.0666C131.186 13.8264 131.292 13.5497 131.457 13.2365C131.55 12.9718 131.619 12.6835 131.664 12.3713C131.733 12.059 131.767 11.8549 131.767 11.759C131.861 11.6382 131.979 11.3494 132.118 10.8925C132.282 10.4114 132.445 9.93037 132.608 9.4493C132.725 9.06458 132.853 8.65577 132.993 8.22288C133.156 7.78976 133.297 7.4168 133.414 7.10401C133.555 6.76702 133.625 6.59852 133.625 6.59852C133.624 6.50262 133.624 6.45467 133.624 6.45467C133.623 6.43069 133.623 6.4187 133.623 6.4187C133.694 6.32213 133.894 5.82874 134.221 4.93853C134.572 4.0481 135.041 2.89282 135.628 1.47271C135.722 1.28001 135.828 1.06323 135.945 0.822364C136.087 0.581274 136.157 0.412778 136.156 0.316875C136.274 0.12396 136.441 0.0265022 136.657 0.0245027C136.873 0.0225033 137.089 0.0924313 137.307 0.234285C137.547 0.351942 137.729 0.542081 137.851 0.804702L138.252 1.37645L137.054 4.01312C136.724 4.68755 136.442 5.31358 136.208 5.89122C135.973 6.44488 135.856 6.76967 135.857 6.86557C135.857 6.86557 135.787 7.05804 135.647 7.44298C135.531 7.82771 135.379 8.29668 135.192 8.84989C135.029 9.37891 134.89 9.85976 134.774 10.2924C134.542 11.0619 134.319 11.6874 134.108 12.1689C133.921 12.6502 133.828 12.9388 133.828 13.0347C133.828 12.9867 134.091 12.9483 134.619 12.9194C135.146 12.8666 135.817 12.8244 136.632 12.7929C137.446 12.7374 138.273 12.6938 139.112 12.662C139.975 12.6061 140.73 12.5511 141.376 12.4971C142.047 12.443 142.502 12.3908 142.742 12.3406L144.574 12.1079L145.654 8.35732C145.816 7.66047 146.024 6.83131 146.278 5.86984C146.557 4.90815 146.801 4.07865 147.011 3.38136C147.336 2.25139 147.605 1.55354 147.819 1.28781C148.032 1.02208 148.282 0.887882 148.57 0.885216C148.666 0.860351 148.822 0.894869 149.039 0.988773C149.279 1.08245 149.448 1.22475 149.546 1.41567C149.86 1.65254 150.007 1.93891 149.986 2.2748C149.989 2.61045 149.813 3.06766 149.459 3.64641C149.129 4.29686 148.848 5.00681 148.615 5.77625C148.407 6.54547 148.209 7.17073 148.021 7.65202C148.048 7.93951 148.026 8.17949 147.956 8.37196C147.886 8.54045 147.803 8.68509 147.708 8.80585C147.661 8.85425 147.567 9.03495 147.426 9.34797C147.309 9.66077 147.192 9.97356 147.075 10.2864C146.982 10.5989 146.935 10.7912 146.936 10.8631C146.962 11.0307 146.94 11.2467 146.87 11.5111C146.801 11.7515 146.718 11.9201 146.623 12.0169C146.601 12.161 146.52 12.5334 146.382 13.1341C146.243 13.7109 146.07 14.3959 145.861 15.1891C145.677 15.9581 145.48 16.7152 145.271 17.4604C145.086 18.2054 144.9 18.8186 144.712 19.2999C144.738 19.4675 144.692 19.6837 144.575 19.9486C144.457 20.1894 144.411 20.4057 144.437 20.5972C144.344 20.8858 144.227 21.2586 144.087 21.7154C143.972 22.1481 143.926 22.4243 143.951 22.5439C143.86 23.0963 143.758 23.6607 143.643 24.2372C143.529 24.8137 143.437 25.3061 143.369 25.7144C143.301 26.1466 143.268 26.3987 143.268 26.4706C143.197 26.5672 143.054 26.5805 142.837 26.5106C142.645 26.4644 142.416 26.3946 142.152 26.3011C141.694 26.0416 141.416 25.7685 141.317 25.4816C141.218 25.1948 141.286 24.7746 141.521 24.2209C141.639 24.028 141.767 23.5473 141.903 22.7787C142.064 22.0099 142.225 21.2532 142.386 20.5083C142.502 20.1476 142.63 19.6549 142.768 19.0302C142.906 18.4055 143.044 17.7808 143.182 17.1561C143.32 16.5314 143.435 15.9908 143.527 15.5344C143.642 15.0777 143.724 14.8252 143.771 14.7768C143.771 14.6809 143.77 14.597 143.769 14.5251C143.768 14.4532 143.768 14.4172 143.768 14.4172C143.72 14.3697 143.42 14.3485 142.868 14.3536C142.317 14.3347 141.633 14.3411 140.818 14.3726C140.003 14.4041 139.153 14.46 138.266 14.5401C137.404 14.62 136.626 14.7231 135.931 14.8495C135.668 14.8759 135.368 14.8907 135.033 14.8938C134.697 14.8969 134.433 14.9113 134.242 14.9371C133.978 14.9395 133.75 14.9536 133.559 14.9794C133.391 14.9809 133.307 14.9817 133.307 14.9817C133.284 15.0538 133.202 15.3064 133.062 15.7393C132.946 16.1719 132.807 16.7007 132.645 17.3256C132.483 17.9266 132.309 18.5516 132.123 19.2007C131.961 19.8496 131.823 20.4384 131.708 20.967C131.593 21.4716 131.524 21.8438 131.503 22.0838C131.435 22.5161 131.332 23.0685 131.194 23.7411C131.056 24.3898 130.907 25.0506 130.745 25.7235C130.607 26.3961 130.481 26.9847 130.366 27.4893C130.275 28.0177 130.206 28.354 130.159 28.4983Z" fill="#FEA800"/>
<path d="M152.825 23.6126C152.323 23.7132 151.999 23.7522 151.855 23.7295C151.735 23.6827 151.542 23.5406 151.276 23.3033C150.89 23.1151 150.565 22.8783 150.298 22.593C150.056 22.3075 149.873 22.0095 149.75 21.6989C149.651 21.3642 149.613 21.0888 149.635 20.8728C149.699 20.033 149.894 19.132 150.221 18.1699C150.548 17.2077 150.947 16.2809 151.418 15.3893C151.89 14.4978 152.398 13.7378 152.944 13.1093C153.513 12.4566 154.061 12.0319 154.586 11.8352C155.064 11.639 155.519 11.5629 155.951 11.6068C156.383 11.6508 156.697 11.8756 156.892 12.2814C157.258 12.9734 157.179 13.4177 156.653 13.6144C156.581 13.6151 156.497 13.6518 156.402 13.7247C156.307 13.7735 156.259 13.8459 156.26 13.9418C156.357 13.9888 156.621 13.9984 157.052 13.9704C157.483 13.9184 157.914 13.8425 158.345 13.7426C158.799 13.6185 159.098 13.4959 159.24 13.3747C159.384 13.3014 159.491 13.2644 159.563 13.2638C159.635 13.2631 159.815 13.2854 160.103 13.3307C160.512 13.4468 160.717 13.5888 160.719 13.7566C160.719 13.8525 160.756 13.9481 160.829 14.0433C160.902 14.1146 160.986 14.1497 161.082 14.1489C161.25 14.1713 161.227 14.2794 161.013 14.4732C160.823 14.6668 160.49 14.9336 160.013 15.2737C159.56 15.5657 159.274 15.7601 159.155 15.8571C159.06 15.93 159.05 16.0979 159.124 16.361C159.32 16.8147 159.337 17.3421 159.175 17.943C159.013 18.544 158.718 19.1581 158.293 19.7855C157.867 20.4129 157.345 21.0051 156.727 21.5624C156.132 22.0954 155.489 22.5569 154.797 22.947C154.129 23.3128 153.472 23.5347 152.825 23.6126ZM152.199 22.0359C152.295 22.035 152.462 21.9855 152.701 21.8874C152.94 21.7653 153.131 21.6676 153.274 21.5944C153.369 21.4976 153.488 21.3886 153.631 21.2674C153.797 21.1219 153.928 21.0368 154.024 21.0119C154.12 21.0111 154.239 20.974 154.383 20.9007C154.526 20.8035 154.728 20.6218 154.989 20.3556C155.25 20.0655 155.594 19.6427 156.02 19.0872C156.495 18.5553 156.862 18.0724 157.122 17.6383C157.381 17.1804 157.449 16.7601 157.326 16.3776C157.301 16.2819 157.229 16.2227 157.109 16.1998C157.012 16.1767 156.88 16.118 156.711 16.0237C156.472 16.0259 156.243 15.968 156.026 15.8502C155.833 15.7081 155.604 15.5304 155.338 15.317L154.756 14.6031L154.15 15.2202C153.77 15.6073 153.368 16.1865 152.943 16.9577C152.543 17.7048 152.202 18.4752 151.922 19.2691C151.641 20.0389 151.479 20.6519 151.435 21.1079C151.415 21.4677 151.477 21.7069 151.622 21.8255C151.767 21.944 151.959 22.0142 152.199 22.0359Z" fill="#FEA800"/>
<path d="M165.944 12.773C166.274 12.1945 166.556 11.5925 166.79 10.9669C167.048 10.3411 167.354 9.73877 167.709 9.16003C167.969 8.75 168.217 8.35207 168.453 7.96623C168.713 7.58018 168.949 7.18236 169.161 6.77277C169.185 6.7246 169.196 6.68852 169.196 6.66455C169.22 6.61637 169.243 6.58019 169.267 6.55599C169.576 6.21745 169.921 5.90254 170.301 5.61128C170.682 5.29604 171.027 4.98113 171.336 4.66656C171.478 4.52137 171.645 4.39994 171.836 4.30226C172.027 4.1806 172.218 4.08292 172.409 4.00922C172.528 3.96016 172.648 3.98302 172.769 4.07782C172.914 4.17239 172.987 4.2916 172.988 4.43545C172.993 4.98689 172.831 5.59982 172.502 6.27425C172.172 6.94868 171.818 7.49147 171.438 7.90261C171.2 8.16857 170.975 8.4464 170.762 8.7361C170.573 9.02559 170.36 9.30331 170.122 9.56926C169.862 9.88339 169.469 10.2707 168.946 10.7311C168.423 11.1915 167.887 11.6161 167.34 12.0048C166.792 12.3935 166.326 12.6496 165.944 12.773ZM166.9 14.9941C166.878 15.2581 166.929 15.5214 167.051 15.784C167.173 16.0466 167.308 16.3331 167.454 16.6434C167.601 16.9538 167.7 17.3005 167.752 17.6837C167.827 18.0667 167.796 18.5225 167.657 19.0513C167.564 19.3639 167.447 19.7007 167.306 20.0616C167.166 20.4226 167.025 20.7476 166.884 21.0367C166.837 21.133 166.718 21.3019 166.529 21.5435C166.363 21.7608 166.185 21.9783 165.995 22.1958C165.829 22.4132 165.711 22.5581 165.64 22.6307C165.545 22.7275 165.413 22.7287 165.244 22.6344C165.075 22.54 164.967 22.4451 164.918 22.3497C164.795 22.087 164.696 21.6684 164.618 21.0936C164.541 20.4949 164.513 20.0516 164.534 19.7636C164.556 19.5476 164.589 19.1996 164.632 18.7197C164.676 18.2397 164.743 17.7356 164.834 17.2072C164.925 16.6789 165.029 16.2223 165.145 15.8376C165.285 15.4287 165.463 15.1753 165.678 15.0774C165.916 14.9553 166.167 14.845 166.43 14.7467C166.692 14.6244 166.943 14.5261 167.182 14.452C167.589 14.3283 167.97 14.109 168.327 13.794C168.708 13.4788 169.089 13.2235 169.471 13.0281C169.732 12.7379 170.018 12.4955 170.327 12.3008C170.661 12.0819 170.947 11.8275 171.184 11.5376C171.326 11.3684 171.456 11.2234 171.575 11.1024C171.718 10.9812 171.873 10.8478 172.039 10.7024C172.206 10.581 172.324 10.424 172.394 10.2316C172.489 10.0389 172.643 9.89358 172.858 9.79568C172.904 9.62741 172.987 9.50675 173.106 9.43371C173.225 9.3367 173.308 9.21604 173.355 9.07174C173.495 8.73475 173.673 8.43339 173.886 8.16766C174.123 7.87773 174.3 7.56438 174.417 7.22761C174.557 6.81869 174.732 6.3495 174.943 5.82003C175.178 5.29035 175.174 4.83481 174.93 4.45342C174.614 3.95282 174.227 3.56077 173.769 3.27729C173.334 2.9696 173.056 2.7324 172.935 2.56568C172.886 2.51818 172.838 2.49464 172.79 2.49509C172.742 2.47156 172.694 2.44802 172.646 2.42449C172.598 2.47289 172.526 2.48554 172.43 2.46246C172.358 2.43915 172.286 2.43981 172.215 2.46446C171.854 2.39586 171.459 2.48344 171.03 2.7272C170.624 2.94676 170.279 3.15377 169.993 3.34824C168.873 4.07795 167.886 5.02222 167.034 6.18105C166.181 7.31591 165.449 8.53357 164.838 9.83403C164.25 11.1343 163.759 12.4096 163.363 13.6602C163.195 13.7097 163.028 13.7472 162.86 13.7727C162.716 13.798 162.561 13.8234 162.393 13.849C162.37 13.9451 162.335 14.0533 162.288 14.1736C162.241 14.294 162.195 14.4143 162.148 14.5346C162.269 14.7253 162.379 14.9161 162.477 15.107C162.598 15.2977 162.756 15.4521 162.949 15.5702C162.761 15.9796 162.61 16.5085 162.496 17.157C162.406 17.8052 162.352 18.4531 162.334 19.1006C162.316 19.7482 162.309 20.3118 162.314 20.7913C162.315 20.9111 162.34 21.0188 162.389 21.1143C162.461 21.2095 162.486 21.3172 162.464 21.4373C162.418 21.7494 162.482 22.1205 162.654 22.5505C162.849 22.9803 163.081 23.3618 163.348 23.695C163.638 24.028 163.892 24.1935 164.108 24.1915C164.395 24.1888 164.708 24.2938 165.046 24.5065C165.407 24.7189 165.743 24.7398 166.053 24.5691C166.244 24.4714 166.423 24.4098 166.591 24.3843C166.782 24.3345 166.962 24.2609 167.128 24.1635C167.391 23.9932 167.688 23.6907 168.019 23.2561C168.375 22.8212 168.635 22.4711 168.801 22.2058C169.061 21.7958 169.249 21.3624 169.364 20.9058C169.48 20.4251 169.607 19.9564 169.747 19.4995C169.864 19.1867 169.897 18.8387 169.845 18.4556C169.817 18.0722 169.827 17.8203 169.874 17.7C169.848 17.5084 169.811 17.3289 169.761 17.1616C169.711 16.9702 169.662 16.7908 169.612 16.6234C169.538 16.3844 169.404 16.1458 169.21 15.9078C169.04 15.6457 168.894 15.4072 168.772 15.1926C168.532 15.1468 168.291 15.1011 168.051 15.0554C167.835 14.9854 167.606 14.9396 167.367 14.9179C167.295 14.9425 167.211 14.9673 167.115 14.9921C167.043 14.9928 166.972 14.9934 166.9 14.9941Z" fill="#FEA800"/>
<path d="M181.833 24.7466C181.594 24.8687 181.318 24.7993 181.004 24.5384C180.69 24.2776 180.472 24.0638 180.35 23.8971C180.132 23.6114 179.973 23.2172 179.872 22.7146C179.771 22.212 179.72 21.7929 179.716 21.4572C179.711 20.8339 179.659 20.4747 179.563 20.3797C179.49 20.2844 179.335 20.3698 179.097 20.6357C178.884 20.8775 178.563 21.2162 178.136 21.6517C177.946 21.8453 177.636 22.0999 177.208 22.4156C176.779 22.7313 176.338 22.9991 175.884 23.2191C175.431 23.4391 175.048 23.5506 174.737 23.5535C174.521 23.5315 174.304 23.4136 174.086 23.1998C173.868 22.9861 173.674 22.7481 173.504 22.4859C173.357 22.1995 173.247 21.9608 173.173 21.7696C173.05 21.4111 173.033 20.8238 173.121 20.0078C173.233 19.1675 173.416 18.2427 173.671 17.2332C173.949 16.1996 174.264 15.2136 174.615 14.2752C174.989 13.3126 175.366 12.5299 175.744 11.9269C176.146 11.2998 176.538 10.9844 176.922 10.9809C177.186 10.9784 177.391 11.1324 177.538 11.4428C177.708 11.7289 177.842 11.9674 177.94 12.1584C178.062 12.397 178.099 12.5525 178.052 12.6249C178.029 12.697 177.934 12.8298 177.768 13.0231C177.578 13.2647 177.354 13.6744 177.096 14.2522C176.837 14.8061 176.567 15.4201 176.286 16.094C176.028 16.7438 175.794 17.3694 175.584 17.9708C175.374 18.5722 175.222 19.0292 175.129 19.3418C175.083 19.534 175.013 19.7984 174.921 20.1349C174.852 20.4713 174.83 20.7352 174.856 20.9268C174.856 20.9508 174.869 21.0106 174.894 21.1063C174.918 21.178 175.015 21.2131 175.182 21.2115C175.71 21.2066 176.235 20.986 176.759 20.5495C177.306 20.0889 177.84 19.4965 178.361 18.7723C178.906 18.0479 179.414 17.2879 179.886 16.4923C180.358 15.6966 180.795 14.9373 181.196 14.2142C181.621 13.491 181.987 12.9001 182.294 12.4417C182.602 11.9593 182.851 11.7052 183.043 11.6795C183.21 11.6539 183.402 11.6761 183.619 11.7461C183.859 11.7918 184.064 11.8738 184.232 11.9921C184.401 12.1105 184.475 12.2776 184.453 12.4936C184.173 13.3834 183.834 14.2737 183.435 15.1646C183.035 16.0315 182.66 16.9102 182.308 17.8006C181.981 18.6908 181.749 19.6041 181.614 20.5405C181.524 21.1168 181.565 21.6799 181.738 22.2298C181.935 22.7794 182.239 23.2682 182.65 23.696C182.892 23.9335 182.871 24.1615 182.585 24.3799C182.299 24.5984 182.049 24.7206 181.833 24.7466Z" fill="#FEA800"/>
<path d="M193.999 23.9505C193.614 23.8341 193.277 23.6574 192.987 23.4203C192.697 23.1593 192.419 22.8741 192.152 22.5649C192.031 22.4221 191.824 22.1363 191.533 21.7074C191.241 21.2785 190.925 20.8019 190.584 20.2775C190.268 19.753 189.963 19.2642 189.672 18.8114C189.379 18.3345 189.16 17.9769 189.014 17.7385C188.898 18.0992 188.769 18.4001 188.627 18.6412C188.509 18.8581 188.452 19.2063 188.457 19.6858C188.22 20.0237 188.044 20.409 187.928 20.8417C187.836 21.2501 187.732 21.6587 187.616 22.0674C187.546 22.3318 187.429 22.5727 187.263 22.79C187.121 23.0071 186.931 23.2007 186.693 23.3708C186.405 23.3495 186.152 23.2559 185.935 23.0901C185.741 22.924 185.572 22.7577 185.427 22.5912C185.28 22.3049 185.218 22.0297 185.239 21.7657C185.261 21.5018 185.318 21.2495 185.412 21.0088C185.458 20.7926 185.586 20.3718 185.796 19.7464C186.03 19.1209 186.275 18.4472 186.532 17.7255C186.789 16.9798 187.023 16.3182 187.233 15.7408C187.444 15.1394 187.56 14.7667 187.583 14.6226C187.722 14.1418 187.969 13.624 188.324 13.0692C188.702 12.4902 188.96 11.8644 189.097 11.1918C189.144 11.0235 189.262 10.8665 189.453 10.7209C189.643 10.5513 189.858 10.4654 190.098 10.4632C190.361 10.4367 190.578 10.5666 190.749 10.8528C190.797 10.8763 190.869 10.9116 190.965 10.9587C191.062 10.9817 191.134 11.029 191.183 11.1005C191.376 11.3145 191.486 11.5413 191.513 11.7808C191.563 12.0201 191.517 12.2723 191.376 12.5374C191.069 13.0917 190.81 13.5497 190.597 13.9113C190.409 14.2488 190.22 14.6222 190.032 15.0315C189.844 15.4409 189.634 16.0063 189.4 16.7278C189.807 16.6281 190.106 16.5534 190.298 16.5037C190.489 16.43 190.668 16.3204 190.834 16.175C191.024 16.0054 191.274 15.7514 191.582 15.4128C191.701 15.2918 191.939 15.0618 192.295 14.7228C192.675 14.3596 193.068 13.9724 193.471 13.561C193.899 13.1494 194.267 12.7863 194.576 12.4718C194.909 12.157 195.087 11.9755 195.111 11.9273C195.252 11.7102 195.395 11.5171 195.537 11.3479C195.703 11.1545 195.917 11.0087 196.18 10.9103C196.54 10.955 196.793 11.0246 196.937 11.1191C197.082 11.1897 197.36 11.391 197.77 11.7228C197.891 11.8176 197.941 12.045 197.92 12.4048C197.9 12.7407 197.77 13.0056 197.532 13.1997C197.104 13.5393 196.568 13.9759 195.926 14.5094C195.283 15.0428 194.593 15.6007 193.855 16.183C193.141 16.7651 192.427 17.3112 191.712 17.8214C192.053 18.3697 192.358 18.8944 192.626 19.3954C192.894 19.8725 193.114 20.2781 193.285 20.6122C193.338 21.2111 193.558 21.6167 193.944 21.8289C194.353 22.017 194.845 22.1083 195.421 22.103C195.613 22.1971 195.734 22.3159 195.784 22.4593C195.857 22.5785 195.894 22.722 195.896 22.8899C195.921 23.0335 195.946 23.1771 195.972 23.3207C195.638 23.5396 195.4 23.7337 195.258 23.9028C195.139 24.0478 194.996 24.133 194.828 24.1586C194.684 24.1599 194.408 24.0905 193.999 23.9505Z" fill="#FEA800"/>
<path d="M201.234 23.9913C200.922 23.9942 200.67 23.9366 200.477 23.8185C200.308 23.7002 200.091 23.5343 199.825 23.321C199.365 22.8457 199.037 22.3932 198.841 21.9634C198.645 21.5096 198.581 21.0786 198.649 20.6704C198.72 20.4779 198.742 20.2979 198.716 20.1303C198.715 19.9384 198.714 19.8425 198.714 19.8425C198.593 19.7238 198.556 19.6522 198.604 19.6278C198.651 19.5794 198.699 19.507 198.746 19.4107C198.89 19.4093 198.936 19.277 198.886 19.0137C198.836 18.8224 198.928 18.4019 199.162 17.7523C199.396 17.1028 199.69 16.4886 200.044 15.9099C200.186 15.6688 200.399 15.3551 200.683 14.9688C200.967 14.5586 201.275 14.1601 201.607 13.7734C201.963 13.3624 202.283 13.0358 202.569 12.7933C203.164 12.2843 203.688 11.9078 204.141 11.6638C204.594 11.4198 205.084 11.2355 205.61 11.1107C206.137 10.9859 206.496 10.9227 206.688 10.9209C206.903 10.9189 207.193 11.108 207.556 11.4883C208.11 11.7229 208.508 12.007 208.751 12.3404C209.018 12.6736 209.19 13.1636 209.268 13.8103C209.347 14.5289 209.294 15.3566 209.111 16.2934C208.952 17.206 208.399 18.3501 207.453 19.7256C206.861 20.5943 206.316 21.2467 205.816 21.683C205.317 22.0952 204.721 22.5084 204.029 22.9224C203.529 23.2627 203.076 23.5187 202.67 23.6903C202.264 23.8379 201.785 23.9383 201.234 23.9913ZM204.651 20.1472C205.22 19.4945 205.67 18.8789 206.001 18.3004C206.355 17.7216 206.684 16.9873 206.987 16.0973C207.081 15.8327 207.138 15.5084 207.158 15.1246C207.178 14.7168 207.163 14.3453 207.112 14.0101C207.085 13.6507 206.999 13.4476 206.854 13.401C206.565 13.2359 206.217 13.1911 205.81 13.2668C205.403 13.3186 204.962 13.5504 204.486 13.9625C203.748 14.5927 203.108 15.3779 202.565 16.3181C202.022 17.2343 201.493 18.2822 200.976 19.4619C200.624 20.3284 200.547 21.0244 200.744 21.5501C200.964 22.0516 201.409 22.2273 202.079 22.0773C202.773 21.903 203.63 21.2596 204.651 20.1472Z" fill="#FEA800"/>
<path d="M212.355 18.817C212.375 18.4332 212.443 17.953 212.557 17.3764C212.672 16.7999 212.775 16.2475 212.866 15.7191C212.981 15.1905 213.013 14.8186 212.963 14.6033C212.866 14.4843 212.757 14.3774 212.637 14.2826C212.516 14.1878 212.395 14.093 212.274 13.9982C212.32 13.734 212.366 13.4938 212.412 13.2776C212.482 13.0612 212.66 12.8797 212.946 12.7332L213.199 12.8387C213.27 12.8141 213.342 12.7894 213.414 12.7648C213.485 12.7162 213.545 12.6796 213.593 12.6552C213.828 12.2214 214.04 11.7519 214.227 11.2466C214.414 10.7174 214.577 10.2244 214.717 9.76748C214.833 9.35878 215.008 8.88959 215.243 8.3599C215.478 7.83022 215.714 7.39644 215.951 7.05855C216.093 6.86542 216.211 6.68449 216.305 6.51577C216.399 6.32308 216.494 6.13038 216.588 5.93769C216.799 5.50413 217.095 5.03382 217.474 4.52678C217.852 3.99576 218.267 3.50037 218.719 3.04061C219.194 2.55665 219.634 2.19291 220.039 1.94938C220.445 1.68187 220.791 1.53479 221.078 1.50815C221.366 1.45753 221.737 1.41813 222.192 1.38993C222.433 1.53156 222.723 1.76865 223.062 2.1012C223.425 2.43353 223.607 2.74355 223.61 3.03125C223.612 3.27101 223.615 3.53474 223.617 3.82245C223.62 4.08618 223.562 4.3265 223.444 4.54339C223.47 4.71099 223.46 4.89092 223.413 5.08317C223.367 5.25145 223.309 5.43182 223.239 5.62429C223.215 5.72042 223.18 5.82864 223.134 5.94896C223.111 6.06906 223.088 6.18916 223.065 6.30926C222.618 7.24854 222.206 8.04362 221.828 8.69452C221.474 9.32122 221.084 9.87633 220.657 10.3598C220.253 10.8192 219.766 11.3032 219.196 11.812C218.649 12.2967 217.983 12.8663 217.197 13.521C217.606 13.6371 217.968 13.8376 218.282 14.1224C218.596 14.3832 218.767 14.7533 218.796 15.2326C218.797 15.3525 218.786 15.4844 218.764 15.6285C218.765 15.7724 218.778 15.9161 218.803 16.0597C218.854 16.371 218.881 16.6704 218.884 16.9582C218.91 17.2217 218.937 17.4972 218.963 17.7847C219.014 18.0719 219.017 18.4196 218.973 18.8276C218.929 19.2356 218.884 19.5837 218.839 19.8719C218.816 19.968 218.78 20.0283 218.733 20.0527C218.709 20.0529 218.697 20.113 218.698 20.2328C218.702 20.6164 218.621 20.9529 218.456 21.2421C218.291 21.5314 218.114 21.8567 217.925 22.2182C217.855 22.3387 217.76 22.4475 217.641 22.5445C217.521 22.6175 217.414 22.7144 217.32 22.8352C216.917 23.3185 216.499 23.5981 216.069 23.674C215.662 23.7497 215.183 23.8621 214.633 24.011L214.562 24.0836C214.32 23.894 214.139 23.7758 214.019 23.729C213.923 23.6819 213.742 23.6117 213.478 23.5182C213.403 23.1832 213.232 22.8491 212.965 22.5159C212.722 22.1825 212.575 21.8361 212.524 21.4769C212.498 21.3093 212.485 21.1536 212.483 21.0098C212.506 20.8417 212.456 20.6863 212.335 20.5436C212.502 20.4221 212.524 20.2781 212.403 20.1113C212.282 19.9446 212.292 19.7887 212.435 19.6435C212.434 19.5955 212.434 19.5476 212.433 19.4996C212.457 19.4514 212.468 19.4154 212.468 19.3914C212.444 19.3437 212.419 19.272 212.394 19.1763C212.369 19.0566 212.356 18.9369 212.355 18.817ZM215.404 21.8099C215.974 21.2532 216.353 20.6862 216.539 20.109C216.725 19.5078 216.816 18.8955 216.81 18.2722C216.828 17.6246 216.833 16.9412 216.827 16.2219C216.826 16.102 216.801 15.9824 216.752 15.8629C216.726 15.7433 216.737 15.6353 216.785 15.5389C216.686 15.2761 216.588 14.9893 216.489 14.6785C216.39 14.3437 216.207 14.0577 215.941 13.8204C215.75 13.918 215.596 14.0274 215.477 14.1484C215.358 14.2694 215.204 14.4746 215.015 14.7641C214.897 15.0049 214.782 15.4496 214.668 16.0981C214.578 16.7463 214.512 17.4662 214.472 18.2579C214.431 19.0255 214.438 19.7448 214.492 20.4157C214.57 21.0863 214.718 21.5525 214.936 21.8143L215.404 21.8099ZM219.706 4.75786C218.899 5.65252 218.189 6.66616 217.576 7.79879C216.963 8.93142 216.482 10.0748 216.133 11.229L216.531 11.4411L218.315 9.94994C218.387 9.90132 218.529 9.74414 218.742 9.47841C218.956 9.21268 219.157 8.93507 219.346 8.64559C219.559 8.3319 219.677 8.13899 219.7 8.06684C219.915 7.89701 220.128 7.58333 220.339 7.12579C220.575 6.66803 220.786 6.16254 220.973 5.60932C221.159 5.03213 221.298 4.49134 221.389 3.98697C221.504 3.45839 221.536 3.06246 221.486 2.79917L221.235 2.90939C220.998 3.2233 220.749 3.53732 220.489 3.85144C220.228 4.14159 219.967 4.44373 219.706 4.75786Z" fill="#FEA800"/>
<path d="M225.56 22.9387C225.057 23.0393 224.734 23.0782 224.59 23.0556C224.47 23.0087 224.277 22.8667 224.011 22.6293C223.625 22.4411 223.299 22.2043 223.033 21.9191C222.791 21.6336 222.608 21.3356 222.485 21.025C222.386 20.6902 222.348 20.4148 222.37 20.1988C222.434 19.359 222.629 18.458 222.956 17.4959C223.283 16.5338 223.682 15.6069 224.153 14.7154C224.624 13.8238 225.133 13.0638 225.679 12.4353C226.248 11.7827 226.795 11.358 227.321 11.1613C227.799 10.965 228.254 10.8889 228.686 10.9328C229.118 10.9768 229.432 11.2017 229.627 11.6075C229.993 12.2994 229.913 12.7438 229.388 12.9405C229.316 12.9411 229.232 12.9779 229.137 13.0507C229.042 13.0995 228.994 13.1719 228.995 13.2678C229.092 13.3149 229.355 13.3244 229.787 13.2964C230.218 13.2445 230.649 13.1686 231.079 13.0687C231.534 12.9446 231.832 12.8219 231.975 12.7007C232.118 12.6274 232.226 12.5905 232.298 12.5898C232.37 12.5891 232.55 12.6114 232.838 12.6567C233.247 12.7728 233.452 12.9148 233.453 13.0826C233.454 13.1785 233.491 13.2741 233.564 13.3693C233.636 13.4406 233.721 13.4758 233.817 13.4749C233.985 13.4973 233.962 13.6054 233.748 13.7992C233.558 13.9928 233.224 14.2597 232.748 14.5998C232.295 14.8917 232.009 15.0862 231.89 15.1832C231.795 15.256 231.785 15.4239 231.859 15.687C232.055 16.1408 232.072 16.6681 231.91 17.2691C231.747 17.87 231.453 18.4842 231.027 19.1115C230.602 19.7389 230.08 20.3312 229.461 20.8884C228.867 21.4214 228.224 21.883 227.532 22.273C226.864 22.6389 226.207 22.8608 225.56 22.9387ZM224.934 21.362C225.03 21.3611 225.197 21.3116 225.436 21.2134C225.675 21.0913 225.866 20.9937 226.009 20.9204C226.104 20.8236 226.223 20.7146 226.366 20.5934C226.532 20.448 226.663 20.3628 226.759 20.338C226.855 20.3371 226.974 20.3 227.117 20.2268C227.26 20.1295 227.463 19.9478 227.724 19.6816C227.985 19.3915 228.329 18.9687 228.755 18.4133C229.23 17.8813 229.597 17.3984 229.857 16.9644C230.116 16.5064 230.184 16.0862 230.061 15.7037C230.036 15.608 229.963 15.5487 229.843 15.5258C229.747 15.5028 229.615 15.444 229.446 15.3497C229.206 15.3519 228.978 15.2941 228.761 15.1762C228.568 15.0341 228.339 14.8564 228.073 14.6431L227.491 13.9291L226.885 14.5462C226.505 14.9334 226.103 15.5125 225.678 16.2838C225.278 17.0308 224.937 17.8012 224.657 18.5951C224.376 19.365 224.214 19.9779 224.17 20.4339C224.149 20.7938 224.212 21.033 224.357 21.1515C224.502 21.2701 224.694 21.3402 224.934 21.362Z" fill="#FEA800"/>
<path d="M243.07 24.0712C242.903 24.1687 242.675 24.1348 242.385 23.9697C242.12 23.8043 241.854 23.555 241.587 23.2218C241.417 22.9356 241.294 22.625 241.219 22.2901C241.168 21.9548 241.14 21.4875 241.134 20.8881C241.154 20.4084 241.127 20.0969 241.053 19.9538C241.004 19.8103 240.872 19.8355 240.658 20.0294C240.444 20.1992 240.076 20.5503 239.553 21.0826C238.959 21.6876 238.388 22.1604 237.84 22.5012C237.316 22.8417 236.886 23.0016 236.55 22.9807C236.382 22.9823 236.189 22.9001 235.972 22.7343C235.778 22.5443 235.596 22.3182 235.426 22.056C235.256 21.7698 235.109 21.4835 234.987 21.1969C234.838 20.6707 234.808 19.9996 234.896 19.1836C235.008 18.3433 235.192 17.4664 235.447 16.5529C235.702 15.6394 235.994 14.7735 236.322 13.9552C236.674 13.1367 237.028 12.474 237.383 11.9672C237.762 11.4602 238.095 11.2053 238.383 11.2027C238.575 11.2009 238.743 11.2952 238.889 11.4857C239.058 11.6759 239.229 11.9741 239.401 12.3801C239.498 12.5471 239.535 12.6906 239.513 12.8107C239.514 12.9306 239.419 13.0753 239.229 13.2449C239.016 13.5346 238.768 13.9685 238.486 14.5466C238.227 15.1245 237.969 15.7503 237.712 16.424C237.478 17.0976 237.268 17.7469 237.082 18.3721C236.896 18.9972 236.769 19.5139 236.701 19.9222C236.633 20.3064 236.647 20.4981 236.742 20.4972C237.078 20.4941 237.472 20.3586 237.926 20.0906C238.402 19.7985 238.855 19.4466 239.283 19.035C239.781 18.5269 240.22 17.9713 240.598 17.3684C241 16.7652 241.402 16.1261 241.803 15.451C242.11 14.9686 242.429 14.4381 242.759 13.8596C243.114 13.2808 243.338 12.8712 243.431 12.6305C243.761 12.004 244.009 11.5821 244.175 11.3648C244.34 11.1235 244.543 10.9657 244.782 10.8916C244.902 10.8905 245.01 10.8895 245.106 10.8886C245.225 10.8875 245.285 10.8869 245.285 10.8869C245.429 10.9096 245.598 11.0159 245.792 11.2059C245.985 11.3001 246.093 11.395 246.118 11.4906C246.143 11.5624 246.156 11.6581 246.157 11.778C246.063 12.0187 245.911 12.3797 245.699 12.8613C245.512 13.3186 245.371 13.6556 245.277 13.8722C244.831 14.9074 244.385 15.9306 243.939 16.9418C243.516 17.9288 243.214 18.9387 243.032 19.9714C242.987 20.3075 242.979 20.7032 243.007 21.1585C243.059 21.5896 243.134 21.9007 243.231 22.0916C243.304 22.2348 243.39 22.4018 243.488 22.5927C243.609 22.7594 243.742 22.9021 243.887 23.0206C244.104 23.1625 244.142 23.318 243.999 23.4872C243.881 23.6561 243.715 23.8015 243.5 23.9234C243.285 24.0213 243.142 24.0706 243.07 24.0712ZM242.464 9.15071C241.722 9.2535 241.096 9.04349 240.588 8.52069C240.079 7.9979 239.689 7.22224 239.415 6.19373C239.366 6.00237 239.34 5.83476 239.339 5.69091C239.361 5.52286 239.408 5.37856 239.479 5.25801C239.526 5.16166 239.621 5.08885 239.764 5.03957C239.907 4.96631 240.027 4.95321 240.124 5.00027C240.46 5.11704 240.702 5.27066 240.847 5.46113C241.017 5.62741 241.126 5.84219 241.177 6.10547C241.226 6.22491 241.251 6.34457 241.252 6.46444C241.277 6.5841 241.29 6.63194 241.289 6.60796C241.413 6.99046 241.571 7.25275 241.764 7.39483C241.957 7.53691 242.245 7.52225 242.627 7.35087C243.033 7.17926 243.427 6.98379 243.809 6.76446C244.214 6.5449 244.571 6.27783 244.88 5.96326C245.141 5.69708 245.391 5.45499 245.629 5.23699C245.89 5.01877 246.14 4.78867 246.378 4.54669L246.413 4.51039C246.508 4.43757 246.628 4.41249 246.772 4.43513C246.916 4.45777 247 4.49296 247.025 4.54069C247.194 4.70696 247.28 4.87402 247.281 5.04185C247.283 5.20968 247.285 5.38949 247.286 5.5813L247.251 5.65356C247.3 5.79697 247.183 6.0738 246.899 6.48405C246.639 6.89408 246.319 7.24473 245.938 7.53599C245.604 7.80283 245.247 8.04592 244.865 8.26526C244.484 8.48459 244.09 8.69205 243.684 8.88763C243.517 8.98509 243.338 9.0467 243.147 9.07245C242.979 9.07401 242.751 9.10009 242.464 9.15071Z" fill="#FEA800"/>
</svg>
