<svg width="18" height="18" viewBox="0 0 18 18" fill="none" xmlns="http://www.w3.org/2000/svg">
<path fill-rule="evenodd" clip-rule="evenodd" d="M17.5972 8.59715C16.9023 8.85759 16.1498 9.00001 15.364 9.00001C11.8492 9.00001 9 6.15077 9 2.63605C9 1.85025 9.14242 1.09772 9.40285 0.402855L9 0L8.59715 0.402855C8.85758 1.09772 9 1.85025 9 2.63605C9 6.15077 6.15076 9.00001 2.63604 9.00001C1.85024 9.00001 1.09771 8.85759 0.402843 8.59715L0 9L0.402858 9.40286C1.09772 9.14243 1.85025 9.00001 2.63604 9.00001C6.15076 9.00001 9 11.8493 9 15.364C9 16.1498 8.85758 16.9023 8.59715 17.5972L9 18L9.40285 17.5972C9.14242 16.9023 9 16.1498 9 15.364C9 11.8493 11.8492 9.00001 15.364 9.00001C16.1498 9.00001 16.9023 9.14243 17.5971 9.40286L18 9L17.5972 8.59715Z" fill="#1D1D1D"/>
</svg>
