<svg width="24" height="24" viewBox="0 0 24 24" fill="none" xmlns="http://www.w3.org/2000/svg">
<g clip-path="url(#clip0_3_462)">
<rect width="24" height="24" fill="white"/>
<path d="M16.6543 7.89428L7.85108 13.3541C7.69609 13.4502 7.62558 13.639 7.67966 13.8132L8.86052 17.6182C8.88532 17.6982 9.00181 17.6872 9.01118 17.604L9.2982 15.0526C9.30925 14.954 9.35655 14.863 9.43085 14.7973L16.8856 8.20515C17.064 8.04737 16.8568 7.76868 16.6543 7.89428Z" fill="#1D1D1D"/>
<path d="M0 0V24H24V0H0ZM20.0056 6.23621L17.2655 19.3366C17.1369 19.9513 16.4159 20.2274 15.9096 19.8558L11.7725 16.819L9.66391 18.9719C9.29385 19.3497 8.65458 19.1968 8.49559 18.6923L6.97359 13.8629L2.89534 12.6586C2.36029 12.5006 2.32874 11.7546 2.84858 11.552L18.8977 5.29786C19.5086 5.05983 20.1398 5.59446 20.0056 6.23621Z" fill="#1D1D1D"/>
</g>
<defs>
<clipPath id="clip0_3_462">
<rect width="24" height="24" fill="white"/>
</clipPath>
</defs>
</svg>
